<?xml version="1.0" standalone="no"?>
<!DOCTYPE svg PUBLIC "-//W3C//DTD SVG 20010904//EN"
 "http://www.w3.org/TR/2001/REC-SVG-20010904/DTD/svg10.dtd">
<svg version="1.0" xmlns="http://www.w3.org/2000/svg"
 width="71.000000pt" height="71.000000pt" viewBox="0 0 71.000000 71.000000"
 preserveAspectRatio="xMidYMid meet">

<g transform="translate(0.000000,71.000000) scale(0.100000,-0.100000)"
fill="#000000" stroke="none">
<path d="M261 695 c-72 -20 -110 -45 -168 -109 -61 -66 -88 -137 -88 -231 0
-105 26 -166 105 -246 78 -79 136 -103 245 -103 109 0 167 24 245 103 79 80
105 141 105 246 0 106 -26 166 -105 245 -47 48 -79 70 -117 84 -72 25 -157 29
-222 11z m21 -325 c33 -93 33 -90 4 -90 -16 0 -27 7 -31 20 -4 13 -15 20 -30
20 -15 0 -26 -7 -30 -20 -7 -22 -59 -30 -53 -7 2 6 14 45 28 85 24 71 25 73
55 70 28 -3 32 -9 57 -78z m128 25 l17 -50 17 53 c17 49 19 52 52 52 l34 0 0
-85 c0 -84 0 -85 -25 -85 -23 0 -25 4 -26 48 l-1 47 -16 -47 c-12 -38 -20 -48
-38 -48 -17 0 -26 10 -37 43 l-15 42 -1 -42 c-1 -39 -3 -43 -26 -43 -25 0 -25
1 -25 86 l0 85 37 -3 c34 -3 37 -6 53 -53z"/>
<path d="M217 375 c-8 -20 -4 -29 11 -24 5 2 6 13 2 23 -6 19 -7 19 -13 1z"/>
</g>
</svg>
