<svg xmlns="http://www.w3.org/2000/svg" width="60" height="48" fill="none" viewBox="0 0 60 48">
  <path fill="#000" fill-rule="evenodd" d="M12.462 0C9.04 0 6.505 2.996 6.62 6.246c.109 3.122-.033 7.165-1.05 10.463C4.546 20.016 2.82 22.111 0 22.38v3.037c2.82.268 4.547 2.363 5.568 5.67 1.018 3.298 1.16 7.341 1.05 10.463-.113 3.25 2.42 6.247 5.845 6.247h35.08c3.423 0 5.956-2.997 5.842-6.246-.108-3.123.033-7.166 1.05-10.463 1.022-3.308 2.744-5.402 5.565-5.672V22.38c-2.82-.269-4.543-2.364-5.564-5.671-1.018-3.297-1.16-7.34-1.05-10.463C53.498 2.996 50.965 0 47.541 0h-35.08Zm28.216 29.422c0 4.475-3.338 7.188-8.876 7.188h-9.43a1.017 1.017 0 0 1-1.016-1.017v-23.39a1.017 1.017 0 0 1 1.017-1.017h9.375c4.618 0 7.649 2.502 7.649 6.343 0 2.696-2.039 5.11-4.637 5.532v.141c3.537.388 5.918 2.837 5.918 6.22ZM30.774 14.41h-5.377v7.594h4.528c3.5 0 5.43-1.41 5.43-3.93 0-2.36-1.659-3.664-4.581-3.664Zm-5.377 10.607v8.369h5.574c3.644 0 5.575-1.463 5.575-4.211 0-2.749-1.984-4.159-5.81-4.159l-5.339.001Z" clip-rule="evenodd"/>
</svg>
