<svg xmlns="http://www.w3.org/2000/svg" width="80" height="80" fill="none" viewBox="0 0 60 60">
  <path fill="#FF6C2C" d="M4.96 26.589h3.75l-.58 2.223a1.41 1.41 0 0 1-.499.746 1.344 1.344 0 0 1-.846.283H5.043c-.398 0-.75.116-1.053.348a1.822 1.822 0 0 0-.64.946c-.077.298-.085.58-.024.846.06.265.168.5.324.705.154.205.353.368.597.49.243.121.508.182.796.182h1.062c.2 0 .362.08.49.24a.58.58 0 0 1 .107.54l-.663 2.455H4.877a4.68 4.68 0 0 1-2.198-.523 4.883 4.883 0 0 1-2.572-3.35 4.839 4.839 0 0 1 .058-2.265l.067-.248c.143-.531.367-1.02.672-1.469a4.837 4.837 0 0 1 2.463-1.883 4.816 4.816 0 0 1 1.593-.265Zm1.891 10.004L10.12 24.35c.088-.31.254-.558.498-.747.243-.188.525-.282.846-.282h3.467c.797 0 1.53.174 2.199.523a4.97 4.97 0 0 1 1.667 1.385c.442.575.747 1.23.912 1.966.166.736.144 1.49-.066 2.265l-.066.249a4.974 4.974 0 0 1-.664 1.468 4.839 4.839 0 0 1-1.07 1.153 4.85 4.85 0 0 1-2.978 1.012h-3.003l.597-2.24c.089-.298.255-.541.498-.73.243-.188.525-.282.846-.282h.962a1.7 1.7 0 0 0 1.07-.365c.316-.243.523-.558.623-.945a1.63 1.63 0 0 0 .025-.813 1.761 1.761 0 0 0-1.717-1.394h-1.859l-2.422 9.01a1.405 1.405 0 0 1-.498.729 1.32 1.32 0 0 1-.83.282H6.852Zm20.69-6.537.049-.182c.022-.089.008-.163-.042-.224a.254.254 0 0 0-.207-.091h-5.392c-.232 0-.443-.05-.63-.15a1.367 1.367 0 0 1-.713-.946 1.422 1.422 0 0 1 .016-.647l.331-1.26h7.3c.454 0 .869.1 1.245.298a2.777 2.777 0 0 1 1.427 3.169l-1.311 4.878a2.198 2.198 0 0 1-.805 1.211c-.404.31-.865.465-1.385.465l-5.392-.017c-.476 0-.913-.102-1.31-.307a2.814 2.814 0 0 1-.98-.813 3.014 3.014 0 0 1-.53-1.161 2.74 2.74 0 0 1 .033-1.336l.066-.249c.077-.31.207-.597.39-.863a2.889 2.889 0 0 1 1.452-1.12 2.83 2.83 0 0 1 .945-.157h4.53l-.332 1.244a1.404 1.404 0 0 1-.498.73 1.32 1.32 0 0 1-.83.282h-2.024c-.188 0-.31.094-.364.282a.34.34 0 0 0 .066.324.369.369 0 0 0 .298.14h3.269a.511.511 0 0 0 .315-.099.426.426 0 0 0 .166-.265l.033-.133.813-3.003Zm9.655-3.467c.807 0 1.546.174 2.215.522a4.95 4.95 0 0 1 1.667 1.386c.442.575.744 1.233.904 1.974a4.74 4.74 0 0 1-.074 2.273l-.83 3.12a.91.91 0 0 1-.356.53 1.007 1.007 0 0 1-.606.199h-1.792a.59.59 0 0 1-.497-.24.586.586 0 0 1-.1-.54l.995-3.766c.078-.276.086-.547.025-.813-.06-.265-.169-.5-.323-.705a1.763 1.763 0 0 0-1.394-.688h-1.858l-1.61 6.022a.909.909 0 0 1-.356.531 1.03 1.03 0 0 1-.622.199h-1.776a.597.597 0 0 1-.489-.24.576.576 0 0 1-.108-.54l2.456-9.224h4.53Zm9.772 3.16a.85.85 0 0 0-.282.407l-.747 2.82a.47.47 0 0 0 .083.432c.1.132.233.199.398.199h6.87l-.532 1.974a1.405 1.405 0 0 1-.498.73 1.32 1.32 0 0 1-.83.282h-6.254c-.454 0-.868-.097-1.244-.29a2.73 2.73 0 0 1-.938-.78 2.84 2.84 0 0 1-.514-1.112 2.541 2.541 0 0 1 .042-1.269l1.012-3.766a3.78 3.78 0 0 1 1.336-2.008 3.784 3.784 0 0 1 2.28-.78h4.43c.454 0 .869.1 1.245.3.375.198.688.458.937.78a2.777 2.777 0 0 1 .473 2.39l-.299 1.126c-.133.498-.4.9-.804 1.203-.404.305-.86.457-1.37.457h-5.01l.332-1.228c.077-.299.238-.542.481-.73.243-.188.525-.282.846-.282h2.024c.188 0 .31-.094.365-.282l.067-.25a.36.36 0 0 0-.066-.331.362.362 0 0 0-.3-.15h-3.085a.704.704 0 0 0-.448.158Zm6.304 6.844 3.335-12.526a.946.946 0 0 1 .357-.54 1.01 1.01 0 0 1 .622-.207h1.775c.21 0 .379.08.506.24a.579.579 0 0 1 .108.54l-2.489 9.241a4.114 4.114 0 0 1-.589 1.328 4.34 4.34 0 0 1-.962 1.02c-.37.282-.783.503-1.236.663a4.234 4.234 0 0 1-1.427.241Z"/>
</svg>
