<svg xmlns="http://www.w3.org/2000/svg" width="60" height="60" fill="none" viewBox="0 0 72 77">
  <g clip-path="url(#a)">
    <path fill="#000" d="M53.937 42.602c-8.867 0-16.082 7.716-16.082 17.199S45.07 77 53.937 77c8.868 0 16.082-7.716 16.082-17.2 0-9.482-7.213-17.198-16.082-17.198Zm0 31.752c-7.503 0-13.608-6.53-13.608-14.553 0-8.024 6.105-14.553 13.608-14.553S67.545 51.777 67.545 59.8c0 8.024-6.104 14.553-13.608 14.553Z"/>
    <path fill="#000" d="M61.36 58.478H46.515c-.683 0-1.237.591-1.237 1.323s.554 1.323 1.237 1.323H61.36c.683 0 1.237-.591 1.237-1.323s-.553-1.323-1.237-1.323ZM29.982 39.644a91.035 91.035 0 0 0 4.635.032c.409-.007.812-.02 1.215-.031l.432-.01c13.921-.475 24.306-3.857 27.57-7.5V19.699c-6.021 4.423-18.75 6.762-30.927 6.762-12.178 0-24.907-2.34-30.928-6.762v12.436c3.264 3.644 13.65 7.026 27.57 7.5l.433.01Z"/>
    <path fill="#000" d="M63.834 14.958v-3.051c0-.222-.07-.422-.167-.606C62.279 5.611 51.605 0 32.907 0 14.255 0 3.593 5.583 2.16 11.259a1.35 1.35 0 0 0-.182.648v3.051c3.51 3.917 15.238 7.533 30.928 7.533 15.69 0 27.419-3.616 30.927-7.533ZM34.336 57.015c.672-5.44 3.265-10.24 7.048-13.566-1.68.139-3.419.248-5.252.303a94.422 94.422 0 0 1-6.458-.001c-9.081-.267-16.318-1.639-21.529-3.595-2.45-.883-4.546-1.923-6.166-3.112V49.48c3.521 3.93 15.333 7.556 30.928 7.556.483 0 .952-.013 1.429-.021Zm-.13 4.092c-.435.005-.858.016-1.3.016-15.272 0-25.813-3.03-30.927-6.881v10.85c0 .214.054.416.145.596 1.461 6.476 14.532 11.31 30.783 11.31 3.102 0 6.086-.178 8.9-.509-4.35-3.623-7.241-9.136-7.601-15.382Z"/>
  </g>
  <defs>
    <clipPath id="a">
      <path fill="#fff" d="M0 0h72v77H0z"/>
    </clipPath>
  </defs>
</svg>
