<svg xmlns="http://www.w3.org/2000/svg" width="54" height="60" fill="none" viewBox="0 0 54 60">
  <path fill="#fff" d="M52.501 7.402 29.363.343A8.1 8.1 0 0 0 27 0c-.82 0-1.616.116-2.363.343L1.498 7.402c-.405.124-.666.41-.666.732 0 .321.261.608.667.732l10.71 3.268v9.05c.003 4.679 1.594 9.174 4.48 12.654 1.387 1.67 2.983 2.997 4.744 3.941 1.868 1.004 3.805 1.512 5.757 1.512 1.95 0 3.888-.508 5.757-1.512 2.648-1.423 4.926-3.708 6.589-6.608a20.138 20.138 0 0 0 2.634-9.987v-9.166l5.302-1.618v7.523a1.479 1.479 0 0 0-1.29 1.465c0 .653.428 1.219 1.04 1.407l-1.125 7.42a.644.644 0 0 0 .634.737h4.251a.642.642 0 0 0 .634-.738l-1.125-7.419a1.472 1.472 0 0 0 1.04-1.407 1.48 1.48 0 0 0-1.29-1.465V9.556l2.26-.69c.406-.124.667-.412.667-.732s-.261-.608-.667-.732ZM27.19 34.907c-1.22 0-2.46-.333-3.686-.991-1.897-1.014-3.622-2.761-4.856-4.923a15.422 15.422 0 0 1-1.374-3.216c7.134-1.263 11.544-5.787 14.032-9.49 1.2 2.436 3.241 5.48 6.355 6.874-.366 2.927-1.55 5.72-3.344 7.876-1.01 1.22-2.2 2.215-3.442 2.88-1.226.657-2.466.99-3.685.99Z"/>
  <path fill="#fff" d="m40.803 36.824-.118-.074-12.953 11.4-12.953-11.4-.118.074c-4.318 2.7-8.908 10.037-8.908 18.32v.111l.099.053c.088.047 9.01 4.692 21.88 4.692s21.792-4.645 21.88-4.692l.1-.053v-.112c0-8.282-4.59-15.62-8.909-18.32Z"/>
</svg>
