<svg xmlns="http://www.w3.org/2000/svg" width="60" height="60" fill="none" viewBox="0 0 60 60">
  <path fill="#fff" d="M30 0c-7.272 0-13.187 5.916-13.187 13.187 0 7.272 5.915 13.188 13.187 13.188 7.272 0 13.187-5.916 13.187-13.188C43.187 5.916 37.272 0 30 0Zm3.152 32.885v19.759c0 .37-.066.722-.183 1.051A3.151 3.151 0 0 1 30 55.797a3.151 3.151 0 0 1-2.97-2.102 3.138 3.138 0 0 1-.182-1.05V32.884C15.005 34.435 5.832 44.589 5.832 56.848A3.153 3.153 0 0 0 8.984 60h42.032a3.153 3.153 0 0 0 3.152-3.152c0-12.258-9.173-22.413-21.016-23.963Z"/>
</svg>
