<svg xmlns="http://www.w3.org/2000/svg" width="50" height="60" fill="none" viewBox="0 0 64 79">
  <path stroke="#000" stroke-linecap="round" stroke-linejoin="round" stroke-width="5" d="M32 3H17.5C9.492 3 3 8.447 3 15.167s6.492 12.166 14.5 12.166M32 3v24.333M32 3h14.5C54.508 3 61 8.447 61 15.167s-6.492 12.166-14.5 12.166m-29 0H32m-14.5 0C9.492 27.333 3 32.78 3 39.5s6.492 12.167 14.5 12.167M32 27.333h14.5m-14.5 0v24.334m14.5-24.334c8.008 0 14.5 5.447 14.5 12.167s-6.492 12.167-14.5 12.167S32 46.22 32 39.5s6.492-12.167 14.5-12.167ZM32 51.667H17.5m14.5 0v12.166C32 70.553 25.508 76 17.5 76S3 70.553 3 63.833s6.492-12.166 14.5-12.166"/>
</svg>
