<svg xmlns="http://www.w3.org/2000/svg" width="23" height="20" fill="none" viewBox="0 0 26 23">
  <path fill="#fff" fill-rule="evenodd" d="M13 0c7.18 0 13 5.278 13 11.79 0 5.21-3.72 9.628-8.883 11.188-.659.116-.893-.252-.893-.566 0-.389.016-1.658.016-3.236 0-1.1-.416-1.817-.883-2.183 2.895-.292 5.937-1.289 5.937-5.818 0-1.288-.504-2.339-1.339-3.164.135-.298.581-1.497-.127-3.121 0 0-1.09-.316-3.572 1.209A13.71 13.71 0 0 0 13 5.702a13.68 13.68 0 0 0-3.254.397C7.262 4.574 6.17 4.889 6.17 4.889c-.706 1.625-.26 2.824-.126 3.122-.831.825-1.34 1.876-1.34 3.164 0 4.518 3.036 5.53 5.923 5.828-.371.294-.708.814-.825 1.576-.741.301-2.623.823-3.783-.98 0 0-.688-1.132-1.993-1.215 0 0-1.267-.015-.088.717 0 0 .851.362 1.443 1.725 0 0 .763 2.104 4.38 1.391.006.986.018 1.915.018 2.195 0 .312-.24.677-.888.567C3.724 21.421 0 17 0 11.791 0 5.278 5.821 0 13 0Z" clip-rule="evenodd"/>
</svg>
