<svg xmlns="http://www.w3.org/2000/svg" width="80" height="80" fill="none" viewBox="0 0 60 60">
  <g clip-path="url(#a)">
    <path fill="#45535E" d="M.007 24.513H2.1v4.648h4.412v-4.648h2.095v11.41H6.511v-4.746H2.1v4.745H.007V24.513Zm15.227 7.693c0 .955-.778 1.732-1.733 1.732a1.735 1.735 0 0 1-1.733-1.732v-4.912H9.784v4.912a3.72 3.72 0 0 0 3.717 3.716 3.72 3.72 0 0 0 3.716-3.716v-4.912h-1.983v4.912Zm7.521-4.854c-.984 0-1.67.285-2.334.936v-3.775h-1.99v6.997c0 2.619 1.893 4.412 4.02 4.412 2.365 0 4.437-1.825 4.437-4.285 0-2.428-1.91-4.285-4.133-4.285Zm.05 6.729c-1.349 0-2.38-1.126-2.38-2.444 0-1.317 1.031-2.444 2.38-2.444 1.143 0 2.175 1.127 2.175 2.444 0 1.318-1.032 2.444-2.175 2.444Zm7.426-6.228c0-1 .667-1.318 1.397-1.318.587 0 1.365.445 1.872.985l1.302-1.524c-.65-.873-1.968-1.476-3.047-1.476-2.159 0-3.714 1.254-3.714 3.333 0 3.857 4.745 2.634 4.745 4.793 0 .666-.65 1.254-1.396 1.254-1.175 0-1.556-.571-2.095-1.175l-1.445 1.492c.922 1.127 2.064 1.699 3.429 1.699 2.047 0 3.698-1.27 3.698-3.254 0-4.285-4.746-2.952-4.746-4.809Zm9.986-.613c-2.127 0-4.021 1.792-4.021 4.412v7.015h1.99v-3.794c.664.651 1.35.937 2.335.937 2.222 0 4.133-1.857 4.133-4.285 0-2.46-2.073-4.285-4.437-4.285Zm.354 6.73c-1.35 0-2.38-1.129-2.38-2.445 0-1.318 1.03-2.444 2.38-2.444 1.142 0 2.174 1.126 2.174 2.444 0 1.316-1.032 2.444-2.174 2.444Zm18.734.111c-1.174 0-1.507-.508-1.507-1.286v-3.444h1.825v-1.745h-1.825v-2.302l-2.015.905v7.015c0 1.794 1.237 2.698 2.935 2.698.254 0 .603-.016.794-.063l.492-1.81c-.222.016-.476.032-.699.032Z"/>
    <path fill="#F8761F" d="M54.056 29.453a4.376 4.376 0 0 0-1.59-1.58 4.268 4.268 0 0 0-1.607-.556v-2.086c.586-.249.95-.8.95-1.442 0-.875-.702-1.585-1.577-1.585-.876 0-1.59.71-1.59 1.585 0 .643.342 1.193.928 1.442v2.087a4.587 4.587 0 0 0-1.398.438l-5.62-4.267c.042-.148.074-.302.074-.463a1.755 1.755 0 1 0-1.755 1.756c.33 0 .637-.097.901-.256l.367.278 5.043 3.634a4.228 4.228 0 0 0-.713.836c-.403.637-.649 1.337-.649 2.102v.16c0 .536.102 1.042.276 1.518.153.416.377.794.653 1.135l-1.673 1.678a1.344 1.344 0 0 0-1.426.313 1.348 1.348 0 0 0-.397.96c0 .362.141.703.398.96a1.353 1.353 0 0 0 1.919-.001 1.35 1.35 0 0 0 .335-1.367l1.73-1.73c.237.164.493.302.769.42a4.496 4.496 0 0 0 1.798.379h.12c.726 0 1.41-.17 2.054-.52a4.249 4.249 0 0 0 1.609-1.514 3.974 3.974 0 0 0 .624-2.141v-.04c0-.77-.178-1.481-.553-2.133Zm-2.114 3.63c-.47.521-1.01.843-1.62.843h-.1c-.348 0-.69-.096-1.023-.272a2.365 2.365 0 0 1-.896-.816 1.904 1.904 0 0 1-.373-1.111v-.12c0-.39.074-.759.263-1.107.2-.381.473-.677.834-.913a2.043 2.043 0 0 1 1.156-.349h.04c.382 0 .744.076 1.086.25.349.187.633.442.854.777.214.336.342.698.383 1.092.006.082.01.166.01.246 0 .535-.205 1.03-.614 1.48Z"/>
  </g>
  <defs>
    <clipPath id="a">
      <path fill="#fff" d="M0 0h60v60H0z"/>
    </clipPath>
  </defs>
</svg>
