<svg xmlns="http://www.w3.org/2000/svg" width="93" height="91" fill="none" viewBox="0 0 93 91">
  <path fill="#E76F00" d="M46.644 24.003C65.791 9.459 55.964 0 55.964 0c1.463 15.036-15.82 18.586-20.453 28.919-3.161 7.05 2.165 13.223 11.127 21.004-.792-1.723-2.014-3.398-3.251-5.093-4.22-5.782-8.615-11.805 3.257-20.827Z"/>
  <path fill="#E76F00" d="M49.701 53.113s5.76-4.548 1.199-9.601C35.436 26.367 67.812 18.586 67.812 18.586c-19.767 9.318-16.816 14.85-11.847 21.568 5.32 7.205-6.264 12.959-6.264 12.959Z"/>
  <path fill="#5382A1" d="M66.66 66.674c17.744-8.873 9.54-17.398 3.814-16.25-1.404.282-2.03.525-2.03.525s.522-.785 1.517-1.125c11.328-3.832 20.04 11.302-3.657 17.297 0 0 .275-.236.357-.447Zm-36.92-11.23c-11.102-1.426 6.087-5.355 6.087-5.355s-6.675-.433-14.885 3.386c-9.707 4.518 24.012 6.573 41.467 2.156 1.815-1.193 4.323-2.226 4.323-2.226s-7.143 1.227-14.256 1.805c-8.704.701-18.049.838-22.736.234Zm4.224 8.472c-6.191-.616-2.138-3.504-2.138-3.504-16.019 5.116 8.913 10.918 31.297 4.62-2.379-.808-3.892-2.284-3.892-2.284-10.94 2.027-17.262 1.962-25.267 1.168Zm2.696 9.166c-6.185-.684-2.571-2.707-2.571-2.707-14.542 3.91 8.845 11.987 27.359 4.352-3.033-1.135-5.204-2.444-5.204-2.444-8.259 1.503-12.09 1.621-19.583.799Z"/>
  <path fill="#5382A1" d="M75.384 77.745s2.675 2.12-2.945 3.76c-10.687 3.115-44.478 4.056-53.865.124-3.375-1.412 2.953-3.372 4.944-3.784 2.076-.433 3.262-.352 3.262-.352-3.753-2.544-24.256 4.995-10.415 7.154 37.748 5.89 68.81-2.653 59.02-6.902Z"/>
  <path fill="#5382A1" d="M81.375 82.377c-.62 7.755-26.773 9.386-43.805 8.337-11.11-.686-13.337-2.4-13.37-2.424 10.634 1.687 28.563 1.994 43.1-.639 12.884-2.334 14.075-5.274 14.075-5.274Z"/>
</svg>
