<svg xmlns="http://www.w3.org/2000/svg" width="70" height="70" fill="none" viewBox="0 0 94 88">
  <g clip-path="url(#a)">
    <path fill="#F7DF1E" d="M0 0h93.71v88H0V0Z"/>
    <path fill="#000" d="m24.64 73.54 7.171-4.076c1.383 2.303 2.642 4.252 5.66 4.252 2.895 0 4.719-1.063 4.719-5.197V40.4h8.806v28.235c0 8.566-5.346 12.465-13.147 12.465-7.044 0-11.134-3.427-13.21-7.561m31.141-.886 7.17-3.899c1.888 2.895 4.34 5.022 8.68 5.022 3.65 0 5.977-1.714 5.977-4.076 0-2.836-2.39-3.84-6.416-5.494l-2.201-.886c-6.354-2.54-10.569-5.73-10.569-12.464 0-6.202 5.032-10.928 12.896-10.928 5.598 0 9.624 1.831 12.517 6.616l-6.856 4.135c-1.51-2.54-3.145-3.544-5.661-3.544-2.58 0-4.215 1.536-4.215 3.544 0 2.48 1.636 3.485 5.41 5.021l2.2.886C82.2 59.6 86.414 62.67 86.414 69.581c0 7.444-6.227 11.52-14.593 11.52-8.178 0-13.462-3.663-16.04-8.448Z"/>
  </g>
  <defs>
    <clipPath id="a">
      <path fill="#fff" d="M0 0h93.71v88H0z"/>
    </clipPath>
  </defs>
</svg>
