<svg xmlns="http://www.w3.org/2000/svg" width="22" height="20" fill="none" viewBox="0 0 22 20">
  <g clip-path="url(#a)">
    <path fill="#fff" fill-rule="evenodd" d="M21.572 19.938h-4.143v-6.644c0-1.823-.878-2.84-2.45-2.84-1.713 0-2.729 1.06-2.729 2.84v6.643H8.107V7.598h4.143v1.388s1.3-2.09 4.229-2.09c2.93 0 5.093 1.639 5.093 5.03v8.012ZM3.386 5.623C1.99 5.624.857 4.578.857 3.288.857 2 1.99.953 3.387.953 4.782.953 5.914 2 5.914 3.288c0 1.29-1.132 2.336-2.529 2.336ZM.857 19.938h5.179V7.598H.857v12.34Z" clip-rule="evenodd"/>
  </g>
  <defs>
    <clipPath id="a">
      <path fill="#fff" d="M.857.953h20.714v18.984H.857z"/>
    </clipPath>
  </defs>
</svg>
