<?xml version="1.0" standalone="no"?>
<!DOCTYPE svg PUBLIC "-//W3C//DTD SVG 20010904//EN"
 "http://www.w3.org/TR/2001/REC-SVG-20010904/DTD/svg10.dtd">
<svg version="1.0" xmlns="http://www.w3.org/2000/svg"
 width="640.000000pt" height="361.000000pt" viewBox="0 0 640.000000 361.000000"
 preserveAspectRatio="xMidYMid meet">

<g transform="translate(0.000000,361.000000) scale(0.100000,-0.100000)"
fill="#000000" stroke="none">
<path d="M2980 3572 c-42 -11 -119 -48 -215 -103 -82 -48 -361 -208 -620 -356
-377 -217 -481 -281 -526 -325 -62 -60 -104 -138 -119 -219 -6 -31 -10 -342
-10 -763 0 -782 0 -775 61 -882 16 -29 52 -72 78 -96 27 -24 218 -142 427
-263 209 -120 480 -277 604 -349 124 -71 254 -140 290 -153 87 -30 183 -30
270 0 52 18 1068 593 1250 708 95 60 155 135 190 238 19 59 20 82 20 804 0
721 -1 746 -20 803 -25 73 -77 152 -127 194 -38 31 -216 136 -920 540 -302
174 -374 211 -432 224 -87 20 -119 19 -201 -2z m1076 -1194 c11 -12 -5 -75
-28 -103 -12 -15 -52 -47 -91 -72 -123 -78 -136 -102 -192 -323 -43 -175 -94
-283 -172 -369 -54 -61 -104 -96 -117 -84 -3 4 -6 19 -6 35 0 42 -12 34 -45
-29 -44 -85 -135 -177 -209 -212 -61 -29 -136 -49 -136 -36 0 3 20 35 45 69
25 35 56 88 69 117 24 53 49 159 37 159 -3 0 -22 -28 -41 -61 -20 -35 -47 -67
-63 -75 -30 -16 -61 -13 -292 30 -165 31 -245 19 -410 -64 -122 -61 -188 -80
-279 -80 -103 0 -121 20 -48 55 23 11 42 23 42 27 0 5 -25 8 -56 8 -52 0 -55
1 -52 22 4 30 48 44 177 57 133 14 177 35 240 116 101 129 208 179 508 240
185 38 273 66 344 110 66 41 143 120 211 215 124 173 177 223 265 245 46 12
287 14 299 3z m-422 -974 c22 -85 21 -94 -11 -94 -38 0 -113 39 -113 58 0 20
91 115 101 104 4 -4 15 -35 23 -68z"/>
<path d="M3748 2308 c-20 -20 -20 -22 -3 -35 11 -7 24 -13 30 -13 21 0 55 31
55 51 0 27 -53 26 -82 -3z"/>
</g>
</svg>
