<svg xmlns="http://www.w3.org/2000/svg" width="90" height="90" fill="none" viewBox="0 0 140 88">
  <path fill="#EB3C00" d="M0 78.888V53.34l23.97-8.353 13.027 3.93V83.31L23.97 87.013 0 78.888l23.97 2.72V51.867L8.337 55.306V75.45L0 78.888Zm62.526.18c-3.772 0-6.794-1.174-9.065-3.519-2.27-2.343-3.404-5.395-3.404-9.15 0-4.037 1.156-7.256 3.47-9.659 2.313-2.403 5.461-3.604 9.444-3.604 3.675 0 6.634 1.167 8.88 3.5 2.246 2.333 3.368 5.383 3.368 9.15 0 4.094-1.151 7.33-3.452 9.712-2.3 2.38-5.38 3.57-9.24 3.57Zm.223-23.272c-2.796 0-5.066.951-6.81 2.852-1.745 1.901-2.617 4.398-2.617 7.489 0 3.09.85 5.578 2.551 7.462 1.7 1.884 3.919 2.826 6.653 2.826 2.919 0 5.22-.898 6.903-2.695 1.682-1.796 2.524-4.31 2.524-7.54 0-3.313-.818-5.873-2.45-7.681-1.632-1.808-3.884-2.714-6.754-2.714v.001Zm23.56-4.06c-1.72 0-3.15.552-4.3 1.642-1.15 1.09-1.726 2.575-1.726 4.453v2.902h-3.24v2.457h3.24v15.46h3.03V63.19h7.408v15.46h3.03V63.19h4.446v-2.457H93.75V57.97c0-2.53 1.065-3.791 3.192-3.791.755 0 1.426.146 2.02.46V52.06c-.544-.21-1.271-.323-2.199-.323-1.72 0-3.165.553-4.315 1.643-1.15 1.09-1.726 2.575-1.726 4.452v2.903h-7.41V57.97c0-2.53 1.063-3.792 3.192-3.792.754 0 1.425.146 2.02.46V52.06c-.545-.212-1.288-.325-2.216-.325Zm16.313 4.444a2.036 2.036 0 0 1-.753-.13 1.955 1.955 0 0 1-.64-.396 1.723 1.723 0 0 1-.575-1.33c0-.536.192-.981.575-1.337a1.91 1.91 0 0 1 .639-.401 2.01 2.01 0 0 1 .754-.133c.556 0 1.029.177 1.419.534.391.355.584.801.584 1.338.005.245-.045.488-.146.714-.1.226-.249.43-.438.599-.389.36-.863.542-1.419.542Zm1.484 22.464h-3.043V60.728h3.042v17.916h.001Zm17.29-.822c-1.459.828-3.193 1.243-5.196 1.243-2.709 0-4.895-.831-6.558-2.494-1.664-1.663-2.498-3.816-2.498-6.465 0-2.952.897-5.322 2.691-7.112 1.795-1.791 4.188-2.686 7.182-2.686 1.669 0 3.142.292 4.416.876v2.938c-1.41-.932-2.919-1.4-4.527-1.4-1.943 0-3.536.657-4.78 1.97-1.243 1.312-1.864 3.035-1.864 5.17 0 2.1.584 3.756 1.752 4.969 1.17 1.212 2.737 1.819 4.706 1.819 1.656 0 3.217-.52 4.676-1.557v2.73Zm18.603-7.418h-13.416c.049 1.995.618 3.534 1.706 4.62 1.091 1.083 2.586 1.626 4.492 1.626 2.14 0 4.108-.665 5.901-1.995v2.695c-1.67 1.142-3.878 1.714-6.625 1.714-2.684 0-4.794-.813-6.327-2.44-1.535-1.629-2.302-3.916-2.302-6.868 0-2.788.838-5.06 2.514-6.816 1.677-1.756 3.758-2.633 6.245-2.633 2.486 0 4.41.759 5.771 2.275 1.36 1.516 2.04 3.622 2.04 6.316v1.506h.001Zm-3.116-2.432c-.013-1.656-.437-2.945-1.272-3.866-.835-.922-1.995-1.383-3.479-1.383-1.436 0-2.654.485-3.656 1.453-1.002.968-1.621 2.234-1.855 3.796h10.262Z"/>
  <path fill="#fff" d="M83.75 14.417c0-6.534 0-9.801 1.272-12.297a11.667 11.667 0 0 1 5.098-5.098c2.496-1.272 5.763-1.272 12.297-1.272h15.166c6.534 0 9.801 0 12.297 1.272a11.664 11.664 0 0 1 5.098 5.098c1.272 2.496 1.272 5.763 1.272 12.297v15.166c0 6.534 0 9.801-1.272 12.297a11.664 11.664 0 0 1-5.098 5.098c-2.496 1.272-5.763 1.272-12.297 1.272h-15.166c-6.534 0-9.801 0-12.297-1.272a11.667 11.667 0 0 1-5.098-5.098c-1.272-2.496-1.272-5.763-1.272-12.297V14.417Z"/>
  <path fill="#34A853" d="m110.004 15.345-6.49-11.452a2.01 2.01 0 0 1 .712-.46c-1.914.63-2.792 2.779-2.792 2.779L89.579 27.127a6.142 6.142 0 0 0-.192 1.77h12.939l7.678-13.552Z"/>
  <path fill="#FBBC05" d="m110.004 15.345 7.677 13.551h12.939a6.13 6.13 0 0 0-.192-1.769L118.573 6.212s-.88-2.15-2.791-2.779c.245.097.495.24.711.46l-6.489 11.452Z"/>
  <path fill="#188038" d="m110.004 15.346 6.489-11.452a2.033 2.033 0 0 0-.711-.46 3.516 3.516 0 0 0-.916-.17h-9.725a3.33 3.33 0 0 0-.915.17 2.037 2.037 0 0 0-.712.46l6.49 11.452Z"/>
  <path fill="#4285F4" d="m102.328 28.897-6.415 11.322s-.213-.104-.503-.319c.91.701 1.796.85 1.796.85H122.4c1.39 0 1.68-.53 1.68-.53l.011-.008-6.41-11.315h-15.353Z"/>
  <path fill="#1967D2" d="M102.329 28.897h-12.94c.066 1.538.733 2.437.733 2.437l.486.844.056.078 1.059 1.858 2.377 4.138c.07.167.15.32.236.467.032.05.062.104.097.15l.028.043c.294.415.623.736.952.989a3.3 3.3 0 0 0 .503.318l6.413-11.322Z"/>
  <path fill="#EA4335" d="M117.681 28.897h12.939c-.065 1.538-.732 2.437-.732 2.437l-.486.844-.056.078-1.059 1.858-2.377 4.138a3.69 3.69 0 0 1-.236.467c-.032.05-.063.104-.097.15l-.028.043a4.555 4.555 0 0 1-.952.989c-.29.217-.503.318-.503.318l-6.413-11.322Z"/>
</svg>
