<svg xmlns="http://www.w3.org/2000/svg" width="109" height="103" fill="none" viewBox="0 0 109 103">
  <path fill="#000" d="M102.276 48.729a13.765 13.765 0 0 0-5.607.785l.089-.029c-.426.161-1.107.161-1.165.673.235.212.27.563.467.86a6.333 6.333 0 0 0 1.46 1.628l.011.01c.596.44 1.192.869 1.82 1.245 1.106.644 2.363 1.027 3.446 1.674.617.377 1.247.856 1.874 1.258.31.2.511.564.909.693v-.081c-.194-.241-.255-.592-.446-.86-.286-.27-.569-.511-.852-.775a13.477 13.477 0 0 0-2.919-2.688l-.041-.026c-.909-.585-2.902-1.406-3.276-2.394l-.055-.058c.743-.1 1.403-.248 2.04-.448l-.081.023c.967-.242 1.853-.19 2.851-.425.449-.11.906-.241 1.362-.377v-.241c-.511-.483-.892-1.14-1.42-1.59a37.42 37.42 0 0 0-4.548-3.225l-.153-.087c-.892-.538-2.027-.885-2.967-1.342-.34-.161-.91-.242-1.107-.512a9.989 9.989 0 0 1-1.144-1.999l-.028-.07a70.213 70.213 0 0 1-2.33-4.678 26.267 26.267 0 0 0-1.525-3.222l.078.152c-2.677-4.246-6.407-7.658-10.86-9.985l-.146-.07a13.946 13.946 0 0 0-3.56-1.092l-.084-.013c-.712-.032-1.42-.08-2.13-.11a10.254 10.254 0 0 1-1.328-.952l.01.01c-1.617-.966-5.804-3.058-6.996-.29-.766 1.745 1.138 3.467 1.795 4.352a12.442 12.442 0 0 1 1.414 1.947l.034.065c.2.466.255.946.456 1.432a30.767 30.767 0 0 0 1.564 3.805l-.089-.2c.337.64.688 1.184 1.08 1.7l-.027-.04c.228.294.62.432.712.915a7.275 7.275 0 0 0-.648 1.963l-.006.045a11.349 11.349 0 0 0 .858 9.115l-.034-.064c.456.667 1.54 2.147 2.99 1.58 1.278-.482.995-2.01 1.363-3.356.085-.322.03-.535.204-.753v.06c.399.757.801 1.478 1.165 2.234a15.728 15.728 0 0 0 3.648 3.573l.045.03c.681.482 1.223 1.319 2.074 1.615v-.08h-.064a3.66 3.66 0 0 0-.644-.528l-.014-.007a14.21 14.21 0 0 1-1.461-1.574l-.027-.035a34.174 34.174 0 0 1-3.083-4.703l-.099-.196c-.466-.843-.858-1.754-1.233-2.588-.17-.322-.17-.805-.456-.965a9.992 9.992 0 0 0-1.336 1.77l-.027.051a14.087 14.087 0 0 0-.797 4.027v.035c-.116.03-.058 0-.116.058-.91-.209-1.223-1.1-1.563-1.85a10.92 10.92 0 0 1-.733-3.963c0-1.146.174-2.253.501-3.299l-.02.084c.2-.564 1.052-2.34.712-2.881-.178-.512-.74-.805-1.053-1.22a9.775 9.775 0 0 1-.995-1.654l-.027-.065c-.681-1.503-1.022-3.17-1.76-4.673a13.912 13.912 0 0 0-1.445-2.093l.024.03a13.743 13.743 0 0 1-1.53-2.028l-.037-.065c-.14-.293-.34-.779-.116-1.1a.471.471 0 0 1 .399-.361c.374-.29 1.43.087 1.798.248 1.08.386 2.01.84 2.872 1.374l-.055-.032c.399.264.831.776 1.342.908h.596c.91.19 1.938.058 2.79.293a18.766 18.766 0 0 1 4.166 1.889l-.072-.042c3.76 2.295 6.772 5.398 8.809 9.064l.068.132c.34.618.49 1.188.8 1.832.597 1.326 1.332 2.668 1.939 3.949a17.31 17.31 0 0 0 2.067 3.666l-.04-.058c.425.563 2.135.856 2.901 1.15.808.267 1.455.52 2.082.807l-.126-.051c.977.563 1.931 1.207 2.851 1.825.466.305 1.887.978 1.972 1.519l-.007.01ZM62.341 72.267c0 .049.004.103.004.158 0 1.796-.849 3.402-2.19 4.484l-.01.006a8.902 8.902 0 0 1-5.914 1.81h.02a12.206 12.206 0 0 1-6.73-2.096l.034.022 1.008-1.915c1.461.773 3.198 1.252 5.045 1.32h.02a5.516 5.516 0 0 0 3.352-.895l-.017.01c.78-.56 1.277-1.436 1.277-2.42v-.056.004c0-1.326-.977-2.453-2.759-3.4a433.662 433.662 0 0 1-4.95-2.642c-1.627-.953-2.694-2.63-2.694-4.542 0-.067 0-.135.004-.202v.01c-.004-.062-.004-.133-.004-.204 0-1.657.774-3.144 1.996-4.155l.007-.006c1.301-1.043 3.001-1.677 4.858-1.677.119 0 .235.003.35.006h-.017.106c2.177 0 4.203.615 5.893 1.674l-.041-.023-.906 1.916a11.928 11.928 0 0 0-4.52-.924h-.007a4.134 4.134 0 0 0-2.79.834l.007-.007c-.644.505-1.053 1.262-1.056 2.108 0 1.32.995 2.453 2.834 3.418 1.673.866 5.052 2.695 5.052 2.695 1.662.923 2.762 2.604 2.762 4.528 0 .058 0 .12-.003.178v-.01l-.02-.007Zm7.058 1.71a12.854 12.854 0 0 1-1.43-7.027l-.004.045c0-5.603 1.802-8.405 5.406-8.407.088-.007.194-.01.303-.01 1.618 0 3.038.798 3.845 2.002l.01.016a12.827 12.827 0 0 1 1.465 5.98c0 .335-.013.667-.037.995l.003-.045c0 5.648-1.802 8.474-5.405 8.478-.092.007-.198.01-.304.01-1.618 0-3.041-.798-3.849-2.002l-.01-.016.007-.02Zm14.013 4.995-4.326-2.012c.395-.312.75-.64 1.077-.994l.01-.01a13.036 13.036 0 0 0 2.756-9.106l.003.045c0-7.36-3.058-11.042-9.173-11.046a9.217 9.217 0 0 0-.457-.01c-2.612 0-4.959 1.085-6.556 2.807l-.007.01a13.059 13.059 0 0 0-2.746 9.073l-.003-.045c-.03.325-.048.705-.048 1.088 0 2.813.933 5.42 2.52 7.56l-.03-.041c1.53 1.538 3.7 2.498 6.1 2.498.225 0 .447-.01.665-.026l-.03.003h.108c1.06 0 2.085-.145 3.056-.412l-.075.02 5.64 3.105 1.533-2.5-.017-.007Zm14.13-.544H86.344V56.187h3.767v19.508h7.43v2.733Zm-52.46-16.41c-.978 6.709-3.216 12.763-6.49 18.187l.137-.248c-1.311 2.385-3.791 4.046-6.703 4.313l-.035.003a6.996 6.996 0 0 1-2.449-.57l.041.017v-1.986c.467.067 1.005.106 1.554.106h.095c.054.003.112.003.174.003a4.09 4.09 0 0 0 2.582-.901l-.007.003c.75-.582 1.23-1.451 1.257-2.43a15.494 15.494 0 0 0-1.019-3.91l.041.109-4.316-12.695h3.873l3.096 9.492c.552 1.339.873 2.89.873 4.51v.006c1.641-4.062 2.888-8.8 3.522-13.715l.03-.296 3.744.003Zm-17.1 16.41h-3.944A194.038 194.038 0 0 0 22.89 60.69h-.034l-6.002 17.738h-3L7.891 60.69h-.04a278.565 278.565 0 0 0-.832 17.738H3.423c.234-7.907.816-15.322 1.744-22.245h4.895l5.682 16.348h.034l5.732-16.348h4.66c1.031 8.105 1.639 15.52 1.823 22.245h-.01Zm45.27-53.067h-.028c-.405 0-.797.048-1.172.138l.034-.006v.051h.058c.293.412.593.77.917 1.104l-.007-.006c.228.43.426.859.654 1.287l.058-.061a1.468 1.468 0 0 0 .596-1.349v.007c-.17-.19-.194-.377-.34-.564-.171-.27-.536-.402-.767-.614l-.004.012Z"/>
</svg>
