<svg xmlns="http://www.w3.org/2000/svg" width="200" height="200" fill="none" viewBox="0 0 147 106">
  <g clip-path="url(#a)">
    <path fill="#000" d="M98.621 21c-.656 0-1.329.03-2.023.072C78.812 22.259 83.53 38.1 83.266 43.384c-.328 3.86-1.263 6.917-4.419 10.697-3.734 3.721-8.96 9.74-11.441 16.004-1.165 2.946-1.727 5.98-1.2 8.83a1.493 1.493 0 0 0-.476.467c-1.086.956-1.894 2.133-2.78 2.975-.837.704-2.037.943-3.356 1.413-1.313.48-2.778.953-3.633 2.42-.379.666-.578 1.384-.558 2.133 0 .69.116 1.41.23 1.894.25 1.41.492 2.573.164 3.431-1.051 2.404-1.165 4.051-.442 5.257.736 1.19 2.25 1.66 3.942 2.133 3.422.704 8.04.481 11.691 2.114 3.892 1.661 7.856 2.381 11.012 1.677 2.2-.415 4.075-1.647 5.079-3.347 2.465-.014 5.176-.957 9.503-1.19 2.942-.21 6.625.953 10.848.704.114.486.262.704.492 1.19v.013c1.642 2.752 4.684 3.998 7.942 3.79 3.235-.22 6.688-1.894 9.481-4.632 2.664-2.699 7.086-3.836 10.012-5.313 1.464-.709 2.648-1.66 2.73-3.03.098-1.41-.837-2.877-2.992-4.87v-.347l-.016-.014c-.723-.704-1.051-1.894-1.43-3.275-.363-1.426-.757-2.78-2.07-3.708-.266-.194-.528-.236-.805-.47a1.738 1.738 0 0 0-.793-.234c1.809-4.526 1.102-9.02-.741-13.077-2.235-4.993-6.164-9.35-9.141-12.338-3.355-3.556-6.64-6.93-6.574-11.924.113-7.626 1-21.72-14.91-21.749L98.62 21Zm2.219 12.062h.066c.887 0 1.657.223 2.449.693.805.481 1.399 1.177 1.84 1.894.445.914.679 1.618.707 2.558 0-.066.016-.138.016-.204v.371c0-.029-.016-.053-.016-.082l-.015-.085c0 .86-.212 1.719-.622 2.505a3.252 3.252 0 0 1-.906 1.19c-.114-.053-.23-.109-.363-.151-.442-.168-.836-.22-1.199-.468a6.484 6.484 0 0 0-.922-.236c.199-.205.609-.47.773-.704.215-.444.329-.927.363-1.424v-.072a3.555 3.555 0 0 0-.265-1.41c-.18-.47-.407-.71-.754-1.177-.363-.236-.707-.47-1.136-.47h-.063c-.395 0-.742.096-1.102.47-.395.33-.691.733-.855 1.177a3.43 3.43 0 0 0-.38 1.41v.072c0 .316.036.635.08.954-.82-.234-1.84-.486-2.563-.72a4.828 4.828 0 0 1-.066-.704v-.072a5.48 5.48 0 0 1 .628-2.723c.344-.775.969-1.442 1.808-1.883a4.688 4.688 0 0 1 2.497-.704v-.005Zm-12.461.21h.148c.594 0 1.137.167 1.68.47a4.924 4.924 0 0 1 1.448 1.644c.379.71.59 1.427.657 2.367v.013c.015.47.015.723-.016.943V39c-.13.029-.23.055-.344.082-.64.194-1.149.47-1.663.71.05-.32.05-.638.015-.944v-.055c-.047-.468-.164-.704-.344-1.177a2.209 2.209 0 0 0-.707-.954 1.177 1.177 0 0 0-.754-.223h-.101c-.294.013-.543.138-.77.47a1.683 1.683 0 0 0-.508.956 2.776 2.776 0 0 0-.101 1.177v.04c.05.486.148.723.344 1.19.18.47.413.71.69.943.051.043.086.072.15.082-.294.21-.493.253-.736.486-.168.099-.344.224-.559.253a9.038 9.038 0 0 1-1.152-1.427 5.39 5.39 0 0 1-.656-2.366c-.067-.8.05-1.605.328-2.367.25-.69.644-1.341 1.2-1.894.542-.47 1.085-.704 1.757-.704l-.006-.005Zm5.77 6.046c1.398 0 3.077.22 5.113 1.41 1.234.71 2.206.956 4.441 1.647 1.085.486 1.707.956 2.02 1.426v-.47c.299.523.331 1.118.066 1.658-.527 1.107-2.172 2.284-4.485 2.988v.013c-1.121.47-2.105 1.177-3.257 1.647-1.165.47-2.484 1.039-4.258.943a5.9 5.9 0 0 1-1.89-.236 12.31 12.31 0 0 1-1.349-.704c-.82-.47-1.527-1.177-2.578-1.647v-.014h-.016c-1.695-.87-2.598-1.814-2.894-2.518-.278-.953-.016-1.657.823-2.127.935-.47 1.591-.957 2.02-1.19.442-.263.61-.361.742-.457h.016v-.013c.707-.72 1.821-1.66 3.535-2.133a9.165 9.165 0 0 1 1.954-.22l-.003-.003Zm11.769 7.578c1.515 5.023 5.05 12.314 7.32 15.842 1.199 1.894 3.598 5.878 4.633 10.71a9.424 9.424 0 0 1 2.156.233c2.727-5.92-2.285-12.285-4.571-14.056-.937-.704-.984-1.177-.527-1.177 2.484 1.88 5.735 5.565 6.919 9.754.543 1.894.678 3.918.101 5.92.278.096.558.22.855.234 4.34 1.9 5.95 3.323 5.176 5.45v-.15c-.243-.011-.508 0-.754 0h-.066c.644-1.658-.77-2.933-4.485-4.344-3.848-1.41-6.922-1.19-7.449 1.647a2.468 2.468 0 0 0-.063.486c-.3.083-.593.178-.887.22-1.809.957-2.781 2.38-3.336 4.208-.543 1.894-.707 4.094-.855 6.628-.101 1.19-.723 2.972-1.351 4.783-6.313 3.804-15.075 5.451-22.501 1.19a10.056 10.056 0 0 0-1.695-1.893 5.393 5.393 0 0 0-1.165-1.177c.77 0 1.43-.109 1.957-.236.606-.248 1.086-.678 1.329-1.188.445-.943 0-2.465-1.465-4.125-1.442-1.644-3.91-3.514-7.512-5.379-2.66-1.41-4.156-3.084-4.848-4.94-.69-1.894-.593-3.847-.066-5.823 1.035-3.79 3.683-7.483 5.378-9.796.442-.22.149.486-1.726 3.46-1.663 2.657-4.8 8.84-.514 13.64a24.99 24.99 0 0 1 2.73-10.18c2.364-4.524 7.332-12.408 7.726-18.66.199.137.906.485 1.215.719.906.47 1.594 1.177 2.484 1.647.887.704 2.004 1.19 3.684 1.19.164.013.312.013.457.013 1.727 0 3.078-.47 4.192-.943 1.215-.486 2.206-1.19 3.121-1.424h.016c1.957-.47 3.519-1.426 4.39-2.478l-.003-.005Zm9.207 31.726c.164 2.128 1.449 4.412 3.715 4.88 2.465.47 6.032-1.177 7.528-2.71l.886-.029c1.329-.03 2.434.03 3.564.943l.016.013c.871.704 1.284 1.88 1.644 3.1.363 1.424.641 2.765 1.727 3.775 2.035 1.867 2.711 3.208 2.679 4.04-.066.924-.792 1.394-2.105 2.1-2.648 1.427-7.348 2.519-10.34 5.566-2.601 2.613-5.77 4.037-8.569 4.218-2.793.194-5.211-.704-6.625-3.18l-.016-.013c-.887-1.413-.508-3.626.231-5.98.741-2.366 1.808-4.77 1.956-6.722.149-2.532.313-4.731.805-6.436.508-1.647 1.301-2.824 2.715-3.472l.18-.085.009-.008Zm-45.52.178h.051c.23 0 .445.013.657.056 1.578.194 2.976 1.177 4.308 2.656l3.828 5.894.016.013c1.02 1.881 3.172 3.762 4.996 5.8 1.828 2.114 3.242 4.007 3.078 5.559v.029c-.25 2.627-2.023 4.051-4.734 4.579-2.715.47-6.398 0-10.078-1.647-4.075-1.894-8.926-1.66-12.032-2.133-1.543-.233-2.563-.72-3.043-1.423-.457-.704-.476-2.133.527-4.36v-.01c.493-1.19.136-2.67-.113-3.971-.23-1.413-.344-2.507.18-3.323.672-1.19 1.676-1.41 2.907-1.894 1.234-.47 2.698-.704 3.847-1.66h.016v-.013c1.07-.938 1.878-2.115 2.812-2.962.792-.72 1.594-1.19 2.778-1.19Zm30.136-32.138c-1.827.704-3.98 1.894-6.265 1.894-2.285 0-4.078-.938-5.375-1.647-.656-.48-1.183-.953-1.578-1.19-.691-.467-.61-1.187-.312-1.187.457.053.543.48.836.72.413.233.906.703 1.512 1.176 1.234.704 2.878 1.658 4.914 1.658 2.042 0 4.441-.954 5.887-1.658.82-.47 1.871-1.176 2.727-1.647.656-.486.628-.956 1.164-.956.543.056.152.47-.606 1.177-.773.486-1.957 1.19-2.907 1.66h.004Zm-4.554-5.615v-.067c-.016-.071.047-.151.13-.18.293-.152.754-.099 1.085.013.262 0 .672.234.64.48-.034.168-.362.237-.577.237-.227 0-.394-.151-.59-.247-.215-.056-.625-.03-.688-.236Zm-2.32 0c-.085.21-.48.18-.691.236-.199.096-.363.247-.593.247-.215 0-.56-.072-.578-.247-.028-.236.363-.47.628-.47.344-.114.77-.167 1.098-.013.067.029.152.109.117.18v.067h.02Z"/>
  </g>
  <path fill="#000" d="m39.313 4.482-6.463 22.83s-7.35-5.236-12.75-4.693c-5.313.543-12.484 3.249-12.484 3.249l6.553-23.012s13.547-7.401 25.146 1.626h-.002Zm-3.01 24.995 6.463-22.65c1.95 1.354 5.4 3.791 10.98 4.513C59.324 11.972 68 8.363 68 8.363l-6.463 22.83c-.974.36-5.046 2.708-12.483 3.159-7.526.45-12.75-4.875-12.75-4.875ZM0 52.85l6.463-23.012s7.262-3.43 13.37-2.977c6.021.361 10.892 3.792 11.866 4.603l-6.463 23.012s-7.437-4.964-12.574-4.513c-5.137.45-9.65 1.354-12.662 2.887Zm28.688 3.61 6.462-22.83s6.908 4.603 11.422 4.421c4.516-.09 7.615-.361 13.724-2.798h.088c-.442 1.172-6.463 22.65-6.463 22.65s-7.083 3.431-13.637 3.07c-6.462-.271-10.358-4.06-11.6-4.513h.003Z"/>
  <defs>
    <clipPath id="a">
      <path fill="#fff" d="M46 21h101v85H46z"/>
    </clipPath>
  </defs>
</svg>
