<svg xmlns="http://www.w3.org/2000/svg" width="60" height="60" fill="none" viewBox="0 0 60 60">
  <path fill="#8892BF" d="M30 56.25c14.498 0 26.25-11.752 26.25-26.25S44.498 3.75 30 3.75 3.75 15.502 3.75 30 15.502 56.25 30 56.25Z"/>
  <path fill="#fff" d="M27.073 18.75h3.15l-.89 4.733h2.83c1.553.033 2.71.38 3.47 1.04.776.661 1.005 1.917.685 3.767l-1.53 8.252h-3.195l1.46-7.88c.153-.826.107-1.413-.136-1.76-.243-.346-.768-.52-1.575-.52l-2.534-.025-1.872 10.185h-3.15l3.287-17.792Z"/>
  <path fill="#fff" fill-rule="evenodd" d="M12.64 23.483h6.117c1.795.016 3.096.578 3.903 1.685.807 1.107 1.073 2.618.8 4.535a9.256 9.256 0 0 1-.709 2.577 7.703 7.703 0 0 1-1.46 2.28c-.761.858-1.576 1.403-2.443 1.635a10.41 10.41 0 0 1-2.694.347h-2.739l-.867 4.708H9.375l3.264-17.767Zm1.3 10.259 1.365-7.41h.462c.167 0 .342-.008.524-.024 1.218-.017 2.23.107 3.037.372.821.264 1.095 1.263.821 2.998-.334 2.065-.99 3.27-1.963 3.618-.974.33-2.191.487-3.652.47h-.32c-.091 0-.182-.008-.274-.024Zm31.878-10.259h-6.117L36.437 41.25h3.172l.868-4.708h2.74c.927 0 1.825-.116 2.693-.347.867-.232 1.681-.777 2.442-1.636a7.705 7.705 0 0 0 1.461-2.28 9.26 9.26 0 0 0 .708-2.576c.274-1.917.008-3.428-.8-4.535-.806-1.107-2.107-1.669-3.903-1.685Zm-3.45 2.85-1.366 7.409c.091.016.183.025.274.025h.32c1.46.016 2.678-.14 3.652-.471.974-.347 1.628-1.553 1.963-3.618.274-1.735 0-2.734-.822-2.998-.806-.265-1.818-.389-3.036-.372a5.91 5.91 0 0 1-.525.025h-.46Z" clip-rule="evenodd"/>
</svg>
