<svg xmlns="http://www.w3.org/2000/svg" width="89" height="82" fill="none" viewBox="0 0 89 82">
  <path fill="url(#a)" fill-rule="evenodd" d="M36.202 5.125c-6.11 0-11.064 4.42-11.064 9.87v6.834h19.15v1.898H16.626c-6.11 0-11.064 4.419-11.064 9.87v14.806c0 5.451 4.953 9.87 11.064 9.87h6.383v-8.352c0-5.45 4.953-9.87 11.064-9.87H54.5c5.17 0 9.362-3.74 9.362-8.352V14.995c0-5.45-4.953-9.87-11.064-9.87H36.202Zm-2.553 12.148c2.115 0 3.83-1.53 3.83-3.416 0-1.887-1.715-3.417-3.83-3.417-2.116 0-3.83 1.53-3.83 3.417 0 1.886 1.714 3.416 3.83 3.416Z" clip-rule="evenodd"/>
  <path fill="url(#b)" fill-rule="evenodd" d="M52.798 76.875c6.11 0 11.064-4.419 11.064-9.87V60.17h-19.15v-1.898h27.66c6.112 0 11.065-4.419 11.065-9.87V33.597c0-5.451-4.953-9.87-11.064-9.87H65.99v8.352c0 5.451-4.954 9.87-11.064 9.87H34.498c-5.17 0-9.362 3.74-9.362 8.352v16.704c0 5.451 4.954 9.87 11.064 9.87h16.597Zm2.553-12.148c-2.115 0-3.83 1.53-3.83 3.417 0 1.887 1.715 3.416 3.83 3.416s3.83-1.53 3.83-3.416c0-1.888-1.715-3.417-3.83-3.417Z" clip-rule="evenodd"/>
  <defs>
    <linearGradient id="a" x1="34.712" x2="34.712" y1="5.125" y2="58.273" gradientUnits="userSpaceOnUse">
      <stop stop-color="#327EBD"/>
      <stop offset="1" stop-color="#1565A7"/>
    </linearGradient>
    <linearGradient id="b" x1="54.287" x2="54.287" y1="23.727" y2="76.875" gradientUnits="userSpaceOnUse">
      <stop stop-color="#FFDA4B"/>
      <stop offset="1" stop-color="#F9C600"/>
    </linearGradient>
  </defs>
</svg>
