<svg xmlns="http://www.w3.org/2000/svg" width="30" height="37" fill="none" viewBox="0 0 37 37">
  <path fill="#fff" stroke="#fff" stroke-width="3.158" d="M20.116 22.163 19 21.047l-1.116 1.116L5.479 34.569l-.022.022-.02.022a1.673 1.673 0 1 1-2.365-2.366l.023-.02.023-.023L15.522 19.8l1.117-1.117-1.117-1.117L3.117 5.167l-.022-.022-.023-.021a1.674 1.674 0 1 1 2.364-2.366l.022.023.021.022 12.405 12.401L19 16.32l1.116-1.116L32.495 2.826a1.674 1.674 0 0 1 2.362 2.364L22.478 17.565l-1.116 1.117 1.116 1.117 12.379 12.378a1.674 1.674 0 0 1-2.362 2.365L20.117 22.163Z"/>
</svg>
