<svg xmlns="http://www.w3.org/2000/svg" width="20" height="20" fill="none" viewBox="0 0 29 27">
  <path fill="#0F0F0F" fill-rule="evenodd" d="M23.743.9c-1.409-1.721-4.398-.808-4.398 1.342v2.16c-4.558-.05-7.676 1.408-9.753 3.445-2.22 2.178-3.134 4.9-3.517 6.763-.191.93.465 1.605 1.154 1.839.658.223 1.538.127 2.125-.498 1.666-1.773 4.904-4.248 9.99-4.086v2.768c0 2.15 2.99 3.063 4.4 1.342l4.523-5.523a3.133 3.133 0 0 0 0-4.029L23.743.9ZM9.041 13.06c2.181-1.772 5.312-3.435 10.304-3.435h1.222c.674 0 1.221.501 1.221 1.12v3.888l4.524-5.524a1.044 1.044 0 0 0 0-1.343l-4.524-5.524v3.279c0 .618-.547 1.119-1.222 1.119h-1.221c-5.498 0-7.967 2.735-7.967 2.735-1.137 1.115-1.869 2.44-2.337 3.686Z" clip-rule="evenodd"/>
  <path fill="#0F0F0F" d="M8.458 1.13H4.833c-2.002 0-3.625 1.51-3.625 3.374v18c0 1.864 1.623 3.375 3.625 3.375h19.334c2.002 0 3.625-1.51 3.625-3.375V19.13c0-.621-.541-1.125-1.209-1.125-.667 0-1.208.504-1.208 1.125v3.375c0 .622-.541 1.125-1.208 1.125H4.833c-.667 0-1.208-.503-1.208-1.125v-18c0-.62.541-1.125 1.208-1.125h3.625c.668 0 1.209-.503 1.209-1.125 0-.62-.541-1.125-1.209-1.125Z"/>
</svg>
