<svg xmlns="http://www.w3.org/2000/svg" width="90" height="90" fill="none" viewBox="0 0 101 86">
  <path fill="url(#a)" fill-rule="evenodd" d="M95.4 41H61.629A5.627 5.627 0 0 0 56 46.625v33.75A5.627 5.627 0 0 0 61.629 86h33.77A5.627 5.627 0 0 0 101 80.375v-33.75A5.627 5.627 0 0 0 95.4 41Zm-30.025 5.625h7.5a3.75 3.75 0 0 1 3.75 3.75v26.25a3.75 3.75 0 0 1-3.75 3.75h-7.5a3.75 3.75 0 0 1-3.75-3.75v-26.25a3.75 3.75 0 0 1 3.75-3.75Zm26.25 0h-7.5a3.75 3.75 0 0 0-3.75 3.75V63.5a3.75 3.75 0 0 0 3.75 3.75h7.5a3.75 3.75 0 0 0 3.75-3.75V50.375a3.75 3.75 0 0 0-3.75-3.75Z" clip-rule="evenodd"/>
  <path fill="#2EB67D" d="M53.97 24c3.02 0 5.468-2.24 5.468-5 0-2.762-2.449-5-5.469-5-3.02 0-5.469 2.239-5.469 5v5h5.47Zm-15.314 0c3.02 0 5.469-2.24 5.469-5V5c0-2.761-2.449-5-5.469-5-3.02 0-5.468 2.239-5.468 5v14c0 2.76 2.448 5 5.468 5Z"/>
  <path fill="#E01E5A" d="M8.03 28c-3.02 0-5.467 2.24-5.467 5 0 2.761 2.448 5 5.468 5s5.469-2.24 5.469-5v-5H8.03Zm15.314 0c-3.02 0-5.469 2.24-5.469 5v14c0 2.761 2.448 5 5.469 5 3.02 0 5.468-2.239 5.468-5V33c0-2.76-2.448-5-5.468-5Z"/>
  <path fill="#ECB22E" d="M33.188 47c0 2.762 2.449 5 5.469 5 3.02 0 5.468-2.239 5.468-5s-2.449-5-5.469-5h-5.468v5Zm0-14c0 2.761 2.449 5 5.47 5h15.31c3.021 0 5.47-2.239 5.47-5s-2.449-5-5.47-5h-15.31c-3.021 0-5.47 2.239-5.47 5Z"/>
  <path fill="#36C5F0" d="M28.812 5c0-2.762-2.449-5-5.469-5-3.02 0-5.468 2.239-5.468 5s2.448 5 5.469 5h5.468V5Zm0 14c0-2.761-2.449-5-5.47-5H8.033c-3.021 0-5.47 2.239-5.47 5s2.449 5 5.47 5h15.31c3.021 0 5.47-2.239 5.47-5Z"/>
  <defs>
    <linearGradient id="a" x1="78.514" x2="78.514" y1="86" y2="41" gradientUnits="userSpaceOnUse">
      <stop stop-color="#0052CC"/>
      <stop offset=".517" stop-color="#217EF8"/>
      <stop offset="1" stop-color="#2684FF"/>
    </linearGradient>
  </defs>
</svg>
